/* XPM */
static char *_4c751af5e0f4fab9beec6a65f085964Jut19q8HKLZKrAF3[] = {
/* columns rows colors chars-per-pixel */
"32 32 4 1 ",
"  c black",
". c #C53A1E",
"X c #C53A1E",
"o c #FFFFFFFF",
/* pixels */
"oooooooooooooooooooooooooooooooo",
"oooooooooooooooooooooooooooooooo",
"oooooooooooooooooooooooooooooooo",
"oooooooooooooooooooooooooooooooo",
"ooooooooooXXXXXXXX    oooooooooo",
"ooooooooooXXXXXXXX    oooooooooo",
"ooooooooXXXXXXXXXXXX    oooooooo",
"ooooooooXXXXXXXXXXXX    oooooooo",
"ooooooooXXXX....XXXX    oooooooo",
"ooooooooXXXX....XXXX    oooooooo",
"ooooooXXXX..XXXX  XXXX    oooooo",
"ooooooXXXX..XXXX  XXXX    oooooo",
"ooooooXXXX..XXXX  XXXX    oooooo",
"ooooooXXXX..XXXX  XXXX    oooooo",
"ooooooXXXX..XXXX  XXXX    oooooo",
"ooooooXXXX..XXXX  XXXX    oooooo",
"ooooooXXXX..XXXX  XXXX    oooooo",
"ooooooXXXX..XXXX  XXXX    oooooo",
"ooooooXXXX..XXXX  XXXX    oooooo",
"ooooooXXXX..XXXX  XXXX    oooooo",
"ooooooXXXX..XXXX  XXXX    oooooo",
"ooooooXXXX..XXXX  XXXX    oooooo",
"ooooooXXXX..XXXX  XXXX    oooooo",
"ooooooXXXX..XXXX  XXXX    oooooo",
"ooooooXXXX..XXXX  XXXX    oooooo",
"ooooooXXXX..XXXX  XXXX    oooooo",
"ooooooooXXXX    XXXX    oooooooo",
"ooooooooXXXX    XXXX    oooooooo",
"ooooooooXXXXXXXXXXXX    oooooooo",
"ooooooooXXXXXXXXXXXX    oooooooo",
"ooooooooooXXXXXXXX    oooooooooo",
"ooooooooooXXXXXXXX    oooooooooo"
};
