/* XPM */
static char *_bc154f52db844dcadcdb08be8d4ec10DaMc7N37smZzH2Mj[] = {
/* columns rows colors chars-per-pixel */
"32 32 3 1 ",
"  c #A41F19",
". c #FFFFFFFF",
"X c #FFFEFF",
/* pixels */
"................................",
"................................",
"..............XX  ..............",
"..............XX  ..............",
"..............XX  ..............",
"..............XX  ..............",
"............XXXXXX  ............",
"............XXXXXX  ............",
"............XXXXXX  ............",
"............XXXXXX  ............",
"............XXXXXX  ............",
"............XXXXXX  ............",
"............XXXXXX  ............",
"............XXXXXX  ............",
"............XXXXXX  ............",
"............XXXXXX  ............",
"............XXXXXX  ............",
"............XXXXXX  ............",
"............XXXXXX  ............",
"............XXXXXX  ............",
"............XXXXXX  ............",
"............XXXXXX  ............",
"............XXXXXX  ............",
"............XXXXXX  ............",
"............XXXXXX  ............",
"............XXXXXX  ............",
"..............XX  ..............",
"..............XX  ..............",
"..............XX  ..............",
"..............XX  ..............",
"................................",
"................................"
};
