/* XPM */
static char *_743a8e77c9c492c805bb3b12a348288k0qfjoKdoDx6f7ky[] = {
/* columns rows colors chars-per-pixel */
"32 32 4 1 ",
"  c #A41F19",
". c #DE8B1B",
"X c #FFFFFFFF",
"o c #FFFEFF",
/* pixels */
"XXXXXXXXXXXXXXXXXXXXXXXXXXXXXXXX",
"XXXXXXXXXXXXXXXXXXXXXXXXXXXXXXXX",
"XXXXXXXXXXXXXX..  XXXXXXXXXXXXXX",
"XXXXXXXXXXXXXX..  XXXXXXXXXXXXXX",
"XXXXXXXXXXXXXX..  XXXXXXXXXXXXXX",
"XXXXXXXXXXXXXX..  XXXXXXXXXXXXXX",
"XXXXXXXXXXXX..      XXXXXXXXXXXX",
"XXXXXXXXXXXX..      XXXXXXXXXXXX",
"XXXXXXXXXXXX..      XXXXXXXXXXXX",
"XXXXXXXXXXXX..      XXXXXXXXXXXX",
"XXXXXXXXXXXX..      XXXXXXXXXXXX",
"XXXXXXXXXXXX..      XXXXXXXXXXXX",
"XXXXXXXXXXXX..      XXXXXXXXXXXX",
"XXXXXXXXXXXX..      XXXXXXXXXXXX",
"XXXXXXXXXXXXoo      XXXXXXXXXXXX",
"XXXXXXXXXXXXoo      XXXXXXXXXXXX",
"XXXXXXXXXXXXoo      XXXXXXXXXXXX",
"XXXXXXXXXXXXoo      XXXXXXXXXXXX",
"XXXXXXXXXXXX..      XXXXXXXXXXXX",
"XXXXXXXXXXXX..      XXXXXXXXXXXX",
"XXXXXXXXXXXX..      XXXXXXXXXXXX",
"XXXXXXXXXXXX..      XXXXXXXXXXXX",
"XXXXXXXXXXXX..      XXXXXXXXXXXX",
"XXXXXXXXXXXX..      XXXXXXXXXXXX",
"XXXXXXXXXXXX..      XXXXXXXXXXXX",
"XXXXXXXXXXXX..      XXXXXXXXXXXX",
"XXXXXXXXXXXXXX..  XXXXXXXXXXXXXX",
"XXXXXXXXXXXXXX..  XXXXXXXXXXXXXX",
"XXXXXXXXXXXXXX..  XXXXXXXXXXXXXX",
"XXXXXXXXXXXXXX..  XXXXXXXXXXXXXX",
"XXXXXXXXXXXXXXXXXXXXXXXXXXXXXXXX",
"XXXXXXXXXXXXXXXXXXXXXXXXXXXXXXXX"
};
