/* XPM */
static char *b54276fdbf684694ce4bb381a2238ba61CkD2ArkAXPKgU1d[] = {
/* columns rows colors chars-per-pixel */
"32 32 4 1 ",
"  c #F06446",
". c #FFFFFFFF",
"X c #000000",
"a c #FFFFFF",
/* pixels */
"................................",
"....        ........        ....",
"....        ........        ....",
"..            ....            ..",
"..            ....            ..",
"..  aaaa                      ..",
"..  aaaa                      ..",
"    aa                          ",
"    aa                          ",
"                                ",
"                                ",
"            XX    XX            ",
"            XX    XX            ",
"            XX    XX            ",
"            XX    XX            ",
"            XX    XX            ",
"            XX    XX            ",
"..                            ..",
"..                            ..",
"..                            ..",
"..                            ..",
"....                        ....",
"....                        ....",
"......                    ......",
"......                    ......",
"........                ........",
"........                ........",
"..........            ..........",
"..........            ..........",
"..............    ..............",
"..............    ..............",
"................................"
};
