/* XPM */
static char *_ba20450760c4055fdb6935ce249e0cfKpoWfakrXipgDBy9[] = {
/* columns rows colors chars-per-pixel */
"32 32 4 1 ",
"  c None",
". c black",
"X c #561D00",
"o c #9C4A00",
/* pixels */
"  oooooooooooooooooooooooooooo  ",
"  oooooooooooooooooooooooooooo  ",
"ooXXXXXXXXXXXXXXXXXXXXXXXXXXXX..",
"ooXXXXXXXXXXXXXXXXXXXXXXXXXXXX..",
"ooXX..XXXXXXXXXXXXXXXXXXXX..XX..",
"ooXX..XXXXXXXXXXXXXXXXXXXX..XX..",
"ooXXXXXXXXooooooooooXXXXXXXXXX..",
"ooXXXXXXXXooooooooooXXXXXXXXXX..",
"ooXXXXXXoooo......ooooXXXXXXXX..",
"ooXXXXXXoooo......ooooXXXXXXXX..",
"ooXXXXXXoooo..XXXXoooo..XXXXXX..",
"ooXXXXXXoooo..XXXXoooo..XXXXXX..",
"ooXXXXXXoooo..XXXXoooo..XXXXXX..",
"ooXXXXXXoooo..XXXXoooo..XXXXXX..",
"ooXXXXXXXX....XXoooooo..XXXXXX..",
"ooXXXXXXXX....XXoooooo..XXXXXX..",
"ooXXXXXXXXXXXXoooo......XXXXXX..",
"ooXXXXXXXXXXXXoooo......XXXXXX..",
"ooXXXXXXXXXXXXoooo..XXXXXXXXXX..",
"ooXXXXXXXXXXXXoooo..XXXXXXXXXX..",
"ooXXXXXXXXXXXXXX....XXXXXXXXXX..",
"ooXXXXXXXXXXXXXX....XXXXXXXXXX..",
"ooXXXXXXXXXXXXooooXXXXXXXXXXXX..",
"ooXXXXXXXXXXXXooooXXXXXXXXXXXX..",
"ooXXXXXXXXXXXXoooo..XXXXXXXXXX..",
"ooXXXXXXXXXXXXoooo..XXXXXXXXXX..",
"ooXX..XXXXXXXXXX....XXXXXX..XX..",
"ooXX..XXXXXXXXXX....XXXXXX..XX..",
"ooXXXXXXXXXXXXXXXXXXXXXXXXXXXX..",
"ooXXXXXXXXXXXXXXXXXXXXXXXXXXXX..",
"................................",
"................................"
};
