/* XPM */
static char *_bc154f52db844dcadcdb08be8d4ec10DaMc7N37smZzH2Mj[] = {
/* columns rows colors chars-per-pixel */
"8 16 3 1 ",
"  c #A41F19",
". c #7F77FF",
"X c #FFFEFF",
/* pixels */
"........",
"...X ...",
"...X ...",
"..XXX ..",
"..XXX ..",
"..XXX ..",
"..XXX ..",
"..XXX ..",
"..XXX ..",
"..XXX ..",
"..XXX ..",
"..XXX ..",
"..XXX ..",
"...X ...",
"...X ...",
"........"
};
