/* XPM */
static char *c8782c2d49de4abfc3db0eba024ea1f0mpeGFhxbasPNvQr3[] = {
/* columns rows colors chars-per-pixel */
"8 16 4 1 ",
"  c #A41F19",
". c #DE8B1B",
"X c #7F77FF",
"o c #FFFEFF",
/* pixels */
"XXXXXXXX",
"XXX..XXX",
"XX....XX",
"X......X",
"X..o ..X",
"..o.. ..",
"..o.. ..",
"..o.. ..",
"..o.. ..",
"..o.. ..",
"..o.. ..",
"X..o ..X",
"X......X",
"XX....XX",
"XXX..XXX",
"XXXXXXXX"
};
