/* XPM */
static char *result[] = {
/* columns rows colors chars-per-pixel */
"32 32 4 1 ",
"  c black",
". c #C84C0C",
"X c #FC9838",
"o c #FFFFFFFF",
/* pixels */
"oo............................oo",
"oo............................oo",
"..XXXXXXXXXXXXXXXXXXXXXXXXXXXX  ",
"..XXXXXXXXXXXXXXXXXXXXXXXXXXXX  ",
"..XX  XXXXXXXXXXXXXXXXXXXX  XX  ",
"..XX  XXXXXXXXXXXXXXXXXXXX  XX  ",
"..XXXXXXXX..........XXXXXXXXXX  ",
"..XXXXXXXX..........XXXXXXXXXX  ",
"..XXXXXX....      ....XXXXXXXX  ",
"..XXXXXX....      ....XXXXXXXX  ",
"..XXXXXX....  XXXX....  XXXXXX  ",
"..XXXXXX....  XXXX....  XXXXXX  ",
"..XXXXXX....  XXXX....  XXXXXX  ",
"..XXXXXX....  XXXX....  XXXXXX  ",
"..XXXXXXXX    XX......  XXXXXX  ",
"..XXXXXXXX    XX......  XXXXXX  ",
"..XXXXXXXXXXXX....      XXXXXX  ",
"..XXXXXXXXXXXX....      XXXXXX  ",
"..XXXXXXXXXXXX....  XXXXXXXXXX  ",
"..XXXXXXXXXXXX....  XXXXXXXXXX  ",
"..XXXXXXXXXXXXXX    XXXXXXXXXX  ",
"..XXXXXXXXXXXXXX    XXXXXXXXXX  ",
"..XXXXXXXXXXXX....XXXXXXXXXXXX  ",
"..XXXXXXXXXXXX....XXXXXXXXXXXX  ",
"..XXXXXXXXXXXX....  XXXXXXXXXX  ",
"..XXXXXXXXXXXX....  XXXXXXXXXX  ",
"..XX  XXXXXXXXXX    XXXXXX  XX  ",
"..XX  XXXXXXXXXX    XXXXXX  XX  ",
"..XXXXXXXXXXXXXXXXXXXXXXXXXXXX  ",
"..XXXXXXXXXXXXXXXXXXXXXXXXXXXX  ",
"                                ",
"                                "
};
