/* XPM */
static char *_8435fb0669442b3c78dccc06367e585ucgimqFS0i8RgHhe[] = {
/* columns rows colors chars-per-pixel */
"32 32 4 1 ",
"  c None",
". c black",
"X c #9C4A00",
"o c #994E00",
/* pixels */
"  XXXXXXXXXXXXXXXXXXXXXXXXXXXX  ",
"  XXXXXXXXXXXXXXXXXXXXXXXXXXXX  ",
"XXoooooooooooooooooooooooooooo..",
"XXoooooooooooooooooooooooooooo..",
"XXoo..oooooooooooooooooooo..oo..",
"XXoo..oooooooooooooooooooo..oo..",
"XXooooooooXXXXXXXXXXoooooooooo..",
"XXooooooooXXXXXXXXXXoooooooooo..",
"XXooooooXXXX......XXXXoooooooo..",
"XXooooooXXXX......XXXXoooooooo..",
"XXooooooXXXX..ooooXXXX..oooooo..",
"XXooooooXXXX..ooooXXXX..oooooo..",
"XXooooooXXXX..ooooXXXX..oooooo..",
"XXooooooXXXX..ooooXXXX..oooooo..",
"XXoooooooo....ooXXXXXX..oooooo..",
"XXoooooooo....ooXXXXXX..oooooo..",
"XXooooooooooooXXXX......oooooo..",
"XXooooooooooooXXXX......oooooo..",
"XXooooooooooooXXXX..oooooooooo..",
"XXooooooooooooXXXX..oooooooooo..",
"XXoooooooooooooo....oooooooooo..",
"XXoooooooooooooo....oooooooooo..",
"XXooooooooooooXXXXoooooooooooo..",
"XXooooooooooooXXXXoooooooooooo..",
"XXooooooooooooXXXX..oooooooooo..",
"XXooooooooooooXXXX..oooooooooo..",
"XXoo..oooooooooo....oooooo..oo..",
"XXoo..oooooooooo....oooooo..oo..",
"XXoooooooooooooooooooooooooooo..",
"XXoooooooooooooooooooooooooooo..",
"................................",
"................................"
};
