/* XPM */
static char *result[] = {
/* columns rows colors chars-per-pixel */
"32 32 4 1 ",
"  c #6B6D00",
". c #B53120",
"X c #EA9E22",
"o c #FFFFFFFF",
/* pixels */
"oooooooooo..........oooooooooooo",
"oooooooooo..........oooooooooooo",
"oooooooo..................oooooo",
"oooooooo..................oooooo",
"oooooooo      XXXX  XXoooooooooo",
"oooooooo      XXXX  XXoooooooooo",
"oooooo  XX  XXXXXX  XXXXXXoooooo",
"oooooo  XX  XXXXXX  XXXXXXoooooo",
"oooooo  XX    XXXXXX  XXXXXXoooo",
"oooooo  XX    XXXXXX  XXXXXXoooo",
"oooooo    XXXXXXXX        oooooo",
"oooooo    XXXXXXXX        oooooo",
"ooooooooooXXXXXXXXXXXXXXoooooooo",
"ooooooooooXXXXXXXXXXXXXXoooooooo",
"oooo        ....    oooooooooooo",
"oooo        ....    oooooooooooo",
"XXXX        ......      XXXXXXoo",
"XXXX        ......      XXXXXXoo",
"XXXXXXoo    ..XX......    XXXXoo",
"XXXXXXoo    ..XX......    XXXXoo",
"XXXXoooo..............oooo  oooo",
"XXXXoooo..............oooo  oooo",
"oooooo..................    oooo",
"oooooo..................    oooo",
"oooo....................    oooo",
"oooo....................    oooo",
"oo    ......oooooo......    oooo",
"oo    ......oooooo......    oooo",
"oo      oooooooooooooooooooooooo",
"oo      oooooooooooooooooooooooo",
"oooo      oooooooooooooooooooooo",
"oooo      oooooooooooooooooooooo"
};
