/* XPM */
static char *result[] = {
/* columns rows colors chars-per-pixel */
"32 32 4 1 ",
"  c #6B6D00",
". c #B53120",
"X c #EA9E22",
"o c #FFFFFFFF",
/* pixels */
"ooooooooooooooooooooooooooXXXXXX",
"ooooooooooooooooooooooooooXXXXXX",
"oooooooooooo..........ooooXXXXXX",
"oooooooooooo..........ooooXXXXXX",
"oooooooooo..................XXXX",
"oooooooooo..................XXXX",
"oooooooooo      XXXX  XXoo      ",
"oooooooooo      XXXX  XXoo      ",
"oooooooo  XX  XXXXXX  XXXX      ",
"oooooooo  XX  XXXXXX  XXXX      ",
"oooooooo  XX    XXXXXX  XXXXXX  ",
"oooooooo  XX    XXXXXX  XXXXXX  ",
"oooooooo    XXXXXXXX          oo",
"oooooooo    XXXXXXXX          oo",
"ooooooooooooXXXXXXXXXXXXXX  oooo",
"ooooooooooooXXXXXXXXXXXXXX  oooo",
"oooo          ..      ..  oooooo",
"oooo          ..      ..  oooooo",
"oo              ..      ..oooo  ",
"oo              ..      ..oooo  ",
"XXXX            ..........oooo  ",
"XXXX            ..........oooo  ",
"XXXXXXoo....  ....XX....XX..    ",
"XXXXXXoo....  ....XX....XX..    ",
"ooXXoo  ....................    ",
"ooXXoo  ....................    ",
"oooo      ..................    ",
"oooo      ..................    ",
"oo      ..............oooooooooo",
"oo      ..............oooooooooo",
"oo  oooo........oooooooooooooooo",
"oo  oooo........oooooooooooooooo"
};
