/* XPM */
static char *result[] = {
/* columns rows colors chars-per-pixel */
"32 32 4 1 ",
"  c #6B6D00",
". c #B53120",
"X c #EA9E22",
"o c #FFFFFFFF",
/* pixels */
"oooooooooo..........oooooooooooo",
"oooooooooo..........oooooooooooo",
"oooooooo..................oooooo",
"oooooooo..................oooooo",
"oooooooo      XXXX  XXoooooooooo",
"oooooooo      XXXX  XXoooooooooo",
"oooooo  XX  XXXXXX  XXXXXXoooooo",
"oooooo  XX  XXXXXX  XXXXXXoooooo",
"oooooo  XX    XXXXXX  XXXXXXoooo",
"oooooo  XX    XXXXXX  XXXXXXoooo",
"oooooo    XXXXXXXX        oooooo",
"oooooo    XXXXXXXX        oooooo",
"ooooooooooXXXXXXXXXXXXXXoooooooo",
"ooooooooooXXXXXXXXXXXXXXoooooooo",
"oooooooo    ..      oooooooooooo",
"oooooooo    ..      oooooooooooo",
"oooooo        ....    oooooooooo",
"oooooo        ....    oooooooooo",
"oooooo      ....XX....XXoooooooo",
"oooooo      ....XX....XXoooooooo",
"oooooo        ..........oooooooo",
"oooooo        ..........oooooooo",
"oooooo..    XXXXXX......oooooooo",
"oooooo..    XXXXXX......oooooooo",
"oooooooo..  XXXX......oooooooooo",
"oooooooo..  XXXX......oooooooooo",
"oooooooooo......      oooooooooo",
"oooooooooo......      oooooooooo",
"oooooooooo              oooooooo",
"oooooooooo              oooooooo",
"oooooooooo        oooooooooooooo",
"oooooooooo        oooooooooooooo"
};
