/* XPM */
static char *result[] = {
/* columns rows colors chars-per-pixel */
"32 32 4 1 ",
"  c #6B6D00",
". c #B53120",
"X c #EA9E22",
"o c #FFFFFFFF",
/* pixels */
"oooooooooo..........oooooooooooo",
"oooooooooo..........oooooooooooo",
"oooooo  ................oooooooo",
"oooooo  ................oooooooo",
"oooo            XX  XXoooooooooo",
"oooo            XX  XXoooooooooo",
"ooXXXX  XXXX  XXXXXXXXXXXXoooooo",
"ooXXXX  XXXX  XXXXXXXXXXXXoooooo",
"ooXXXX  XXXX    XXXX    XXXXoooo",
"ooXXXX  XXXX    XXXX    XXXXoooo",
"ooooXXXX  XXXXXXXXXXXX    oooooo",
"ooooXXXX  XXXXXXXXXXXX    oooooo",
"oooooo......      ..XXXXoooooooo",
"oooooo......      ..XXXXoooooooo",
"oooo....XXXXXX  ....      oooooo",
"oooo....XXXXXX  ....      oooooo",
"oooo..  XXXXXX            oooooo",
"oooo..  XXXXXX            oooooo",
"oooo......XXXX            oooooo",
"oooo......XXXX            oooooo",
"oooooo..........        oooooooo",
"oooooo..........        oooooooo",
"oooooo..      ........oooooooooo",
"oooooo..      ........oooooooooo",
"oooooooo        ......oooooooooo",
"oooooooo        ......oooooooooo",
"oo  oo  ....      ..oooooooooooo",
"oo  oo  ....      ..oooooooooooo",
"oo          ..oooooooooooooooooo",
"oo          ..oooooooooooooooooo",
"oooo        oooooooooooooooooooo",
"oooo        oooooooooooooooooooo"
};
