/* XPM */
static char *result[] = {
/* columns rows colors chars-per-pixel */
"32 32 4 1 ",
"  c #6B6D00",
". c #B53120",
"X c #EA9E22",
"o c #FFFFFFFF",
/* pixels */
"oooooooooooooooooooooooooooooooo",
"oooooooooooooooooooooooooooooooo",
"oooooooooooo..........oooooooooo",
"oooooooooooo..........oooooooooo",
"oooooooooo..................oooo",
"oooooooooo..................oooo",
"oooooooooo      XXXX  XXoooooooo",
"oooooooooo      XXXX  XXoooooooo",
"oooooooo  XX  XXXXXX  XXXXXXoooo",
"oooooooo  XX  XXXXXX  XXXXXXoooo",
"oooooooo  XX    XXXXXX  XXXXXXoo",
"oooooooo  XX    XXXXXX  XXXXXXoo",
"oooooooo    XXXXXXXX        oooo",
"oooooooo    XXXXXXXX        oooo",
"ooooooooooooXXXXXXXXXXXXXXoooooo",
"ooooooooooooXXXXXXXXXXXXXXoooooo",
"oooooooooo        ..  ooXXoooooo",
"oooooooooo        ..  ooXXoooooo",
"ooooooooXX            XXXXXXoooo",
"ooooooooXX            XXXXXXoooo",
"ooooooXXXX..          XXXXoooooo",
"ooooooXXXX..          XXXXoooooo",
"oooooo    ..............oooooooo",
"oooooo    ..............oooooooo",
"oooooo  ................oooooooo",
"oooooo  ................oooooooo",
"oooo    ......oo......oooooooooo",
"oooo    ......oo......oooooooooo",
"oooo  oooooooo      oooooooooooo",
"oooo  oooooooo      oooooooooooo",
"oooooooooooooo        oooooooooo",
"oooooooooooooo        oooooooooo"
};
