/* XPM */
static char *_cb55574a16a4a2ed5a3054887c08336kwOuRmFJjpVV49Io[] = {
/* columns rows colors chars-per-pixel */
"32 32 4 1 ",
"  c black",
". c #9C4A00",
"X c #FFFFFFFF",
"o c #FFCEC5",
/* pixels */
"XXXXXXXXXXXX........XXXXXXXXXXXX",
"XXXXXXXXXXXX........XXXXXXXXXXXX",
"XXXXXXXXXX............XXXXXXXXXX",
"XXXXXXXXXX............XXXXXXXXXX",
"XXXXXXXX................XXXXXXXX",
"XXXXXXXX................XXXXXXXX",
"XXXXXX....................XXXXXX",
"XXXXXX....................XXXXXX",
"XXXX..    ............    ..XXXX",
"XXXX..    ............    ..XXXX",
"XX......oo  ........  oo......XX",
"XX......oo  ........  oo......XX",
"XX......oo            oo......XX",
"XX......oo            oo......XX",
"........oo  oo....oo  oo........",
"........oo  oo....oo  oo........",
"........oooooo....oooooo........",
"........oooooo....oooooo........",
"................................",
"................................",
"XX........oooooooooooo........XX",
"XX........oooooooooooo........XX",
"XXXXXXXXooooooooooooooooXXXXXXXX",
"XXXXXXXXooooooooooooooooXXXXXXXX",
"XXXXXXXXoooooooooooooooo    XXXX",
"XXXXXXXXoooooooooooooooo    XXXX",
"XXXXXX    oooooooooo          XX",
"XXXXXX    oooooooooo          XX",
"XXXXXX      oooooo            XX",
"XXXXXX      oooooo            XX",
"XXXXXXXX      XXXX          XXXX",
"XXXXXXXX      XXXX          XXXX"
};
