/* XPM */
static char *_9fd7ea7b0cc4be2be449e21ad52010aeA7Zx2N4xe4hDiCC[] = {
/* columns rows colors chars-per-pixel */
"32 32 4 1 ",
"  c #6B6D00",
". c #B53120",
"X c #EA9E22",
"o c #FFFFFFFF",
/* pixels */
"XXXXXXoooooooooooooooooooooooooo",
"XXXXXXoooooooooooooooooooooooooo",
"XXXXXXoooo..........oooooooooooo",
"XXXXXXoooo..........oooooooooooo",
"XXXX..................oooooooooo",
"XXXX..................oooooooooo",
"      ooXX  XXXX      oooooooooo",
"      ooXX  XXXX      oooooooooo",
"      XXXX  XXXXXX  XX  oooooooo",
"      XXXX  XXXXXX  XX  oooooooo",
"  XXXXXX  XXXXXX    XX  oooooooo",
"  XXXXXX  XXXXXX    XX  oooooooo",
"oo          XXXXXXXX    oooooooo",
"oo          XXXXXXXX    oooooooo",
"oooo  XXXXXXXXXXXXXXoooooooooooo",
"oooo  XXXXXXXXXXXXXXoooooooooooo",
"oooooo  ..      ..          oooo",
"oooooo  ..      ..          oooo",
"  oooo..      ..              oo",
"  oooo..      ..              oo",
"  oooo..........            XXXX",
"  oooo..........            XXXX",
"    ..XX....XX....  ....ooXXXXXX",
"    ..XX....XX....  ....ooXXXXXX",
"    ....................  ooXXoo",
"    ....................  ooXXoo",
"    ..................      oooo",
"    ..................      oooo",
"oooooooooo..............      oo",
"oooooooooo..............      oo",
"oooooooooooooooo........oooo  oo",
"oooooooooooooooo........oooo  oo"
};
