/* XPM */
static char *_bcad31fd2334553c28992dbd085171elKmHc8Mi71QSA8Y6[] = {
/* columns rows colors chars-per-pixel */
"32 32 4 1 ",
"  c #6B6D00",
". c #B53120",
"X c #EA9E22",
"o c #FFFFFFFF",
/* pixels */
"oooooooooooo..........oooooooooo",
"oooooooooooo..........oooooooooo",
"oooooo..................oooooooo",
"oooooo..................oooooooo",
"ooooooooooXX  XXXX      oooooooo",
"ooooooooooXX  XXXX      oooooooo",
"ooooooXXXXXX  XXXXXX  XX  oooooo",
"ooooooXXXXXX  XXXXXX  XX  oooooo",
"ooooXXXXXX  XXXXXX    XX  oooooo",
"ooooXXXXXX  XXXXXX    XX  oooooo",
"oooooo        XXXXXXXX    oooooo",
"oooooo        XXXXXXXX    oooooo",
"ooooooooXXXXXXXXXXXXXXoooooooooo",
"ooooooooXXXXXXXXXXXXXXoooooooooo",
"oooooooooooo      ..    oooooooo",
"oooooooooooo      ..    oooooooo",
"oooooooooo    ....        oooooo",
"oooooooooo    ....        oooooo",
"ooooooooXX....XX....      oooooo",
"ooooooooXX....XX....      oooooo",
"oooooooo..........        oooooo",
"oooooooo..........        oooooo",
"oooooooo......XXXXXX    ..oooooo",
"oooooooo......XXXXXX    ..oooooo",
"oooooooooo......XXXX  ..oooooooo",
"oooooooooo......XXXX  ..oooooooo",
"oooooooooo      ......oooooooooo",
"oooooooooo      ......oooooooooo",
"oooooooo              oooooooooo",
"oooooooo              oooooooooo",
"oooooooooooooo        oooooooooo",
"oooooooooooooo        oooooooooo"
};
