/* XPM */
static char *_743a8e77c9c492c805bb3b12a348288k0qfjoKdoDx6f7ky[] = {
/* columns rows colors chars-per-pixel */
"8 16 4 1 ",
"  c #A41F19",
". c #DE8B1B",
"X c #7F77FF",
"o c #FFFEFF",
/* pixels */
"XXXXXXXX",
"XXX. XXX",
"XXX. XXX",
"XX.   XX",
"XX.   XX",
"XX.   XX",
"XX.   XX",
"XXo   XX",
"XXo   XX",
"XX.   XX",
"XX.   XX",
"XX.   XX",
"XX.   XX",
"XXX. XXX",
"XXX. XXX",
"XXXXXXXX"
};
