/* XPM */
static char *result[] = {
/* columns rows colors chars-per-pixel */
"32 32 215 2 ",
"   c #1F0000",
".  c #200000",
"X  c #210000",
"o  c #240000",
"O  c #260000",
"+  c #270000",
"@  c #280000",
"#  c #290000",
"$  c #2A0000",
"%  c #2B0000",
"&  c #2C0000",
"*  c #2D0000",
"=  c #2E0000",
"-  c #2F0000",
";  c #300000",
":  c #310000",
">  c #320000",
",  c #330000",
"<  c #340000",
"1  c #360000",
"2  c #370000",
"3  c #380000",
"4  c #390000",
"5  c #3F0000",
"6  c #B64F0D",
"7  c #BE4A0F",
"8  c #BC4F0E",
"9  c #B54C13",
"0  c #BE4D13",
"q  c #BD4B17",
"w  c #BB4C15",
"e  c #BE4D15",
"r  c #B74E1E",
"t  c #BF4F1D",
"y  c #B35015",
"u  c #BC5616",
"i  c #B1531D",
"p  c #B2531D",
"a  c #B0501E",
"s  c #B4501F",
"d  c #BB501A",
"f  c #BE531B",
"g  c #B85418",
"h  c #BB541A",
"j  c #BC5618",
"k  c #BA521D",
"l  c #BF511E",
"z  c #B9541E",
"x  c #8F5E3E",
"c  c #975733",
"v  c #9F5530",
"b  c #9F5633",
"n  c #9E5A37",
"m  c #9A573A",
"M  c #995D3B",
"N  c #995C3F",
"B  c #B34E20",
"V  c #B74D23",
"C  c #B24C24",
"Z  c #B04F25",
"A  c #B24F26",
"S  c #B64F24",
"D  c #B84F20",
"F  c #BA4F21",
"G  c #A2572F",
"H  c #A4572D",
"J  c #A5562F",
"K  c #AB532B",
"L  c #AA572B",
"P  c #AD552F",
"I  c #AE542F",
"U  c #A2582B",
"Y  c #A3592C",
"T  c #A1582F",
"R  c #B35122",
"E  c #B65020",
"W  c #B45221",
"Q  c #B05026",
"!  c #B35227",
"~  c #B65127",
"^  c #B45326",
"/  c #B15524",
"(  c #B35424",
")  c #B75524",
"_  c #B85422",
"`  c #B85124",
"'  c #B45A26",
"]  c #B7512B",
"[  c #B15428",
"{  c #B2522C",
"}  c #B2552C",
"|  c #B9532D",
" . c #AE4F31",
".. c #A25430",
"X. c #A55730",
"o. c #A25537",
"O. c #A05736",
"+. c #AC5230",
"@. c #A95530",
"#. c #AA5530",
"$. c #A85630",
"%. c #AA5631",
"&. c #AE5431",
"*. c #AA5737",
"=. c #A75A30",
"-. c #A65B33",
";. c #A15837",
":. c #A65C37",
">. c #A95A31",
",. c #A85835",
"<. c #A85739",
"1. c #AE5739",
"2. c #A15838",
"3. c #A35839",
"4. c #A55A3A",
"5. c #A65C39",
"6. c #B05230",
"7. c #B45131",
"8. c #C04607",
"9. c #C34F04",
"0. c #C54F07",
"q. c #C84E05",
"w. c #C74A0A",
"e. c #C74B0B",
"r. c #C04F0B",
"t. c #C54E0A",
"y. c #C7490C",
"u. c #C54A0E",
"i. c #C64B0F",
"p. c #C24C0C",
"a. c #C64C0D",
"s. c #C9490A",
"d. c #CB4B0A",
"f. c #CB4F09",
"g. c #CB4B0C",
"h. c #C84A0F",
"j. c #C84E0D",
"k. c #CA4C0F",
"l. c #CC4C0F",
"z. c #C05006",
"x. c #C0510C",
"c. c #C6510E",
"v. c #CC5008",
"b. c #C14A12",
"n. c #C44B12",
"m. c #C64E11",
"M. c #C64E12",
"N. c #C04D17",
"B. c #C24D17",
"V. c #C94E12",
"C. c #CF4F12",
"Z. c #CA4F16",
"A. c #C14F19",
"S. c #CA5011",
"D. c #CC5010",
"F. c #C85014",
"G. c #C05119",
"H. c #C45118",
"J. c #C3511D",
"K. c #C3511F",
"L. c #C05124",
"P. c #8D5E44",
"I. c #975940",
"U. c #945A44",
"Y. c #9C5841",
"T. c #9A5C47",
"R. c #A55740",
"E. c #8D6043",
"W. c #856153",
"Q. c #FFB38A",
"!. c #FFB58A",
"~. c #FFB58B",
"^. c #FFB48D",
"/. c #FFB48F",
"(. c #FFB78F",
"). c #FFB88C",
"_. c #FFB98C",
"`. c #FFB88D",
"'. c #FFBB8C",
"]. c #FFBA8F",
"[. c #FFB391",
"{. c #FFB691",
"}. c #FFB792",
"|. c #FFB595",
" X c #FFB694",
".X c #FFB794",
"XX c #FFB795",
"oX c #FFB890",
"OX c #FFB892",
"+X c #FFB992",
"@X c #FFBB92",
"#X c #FFB994",
"$X c #FFB896",
"%X c #FFBB96",
"&X c #FFB59A",
"*X c #FFB59F",
"=X c #FFB69F",
"-X c #FFBA98",
";X c #FFB99B",
":X c #FFBB9B",
">X c #FFBC9E",
",X c #FDBBA5",
"<X c #FFB9A6",
"1X c #F8BEA6",
"2X c #FFBCA4",
"3X c #FFBCA5",
"4X c #FEBCA6",
"5X c #FFBBAB",
"6X c #EFBFB3",
"7X c #FBC2A7",
"8X c #F3C0AD",
"9X c #FAC1AD",
"0X c #F8C0AF",
"qX c #E7C3B5",
"wX c #E6C9B9",
/* pixels */
"P P .X.X|.|.|.|.}.}.~.~.@X@X#X#X1X1X& & $.$.).).OXOX/./.].].Y Y ",
"P P .X.X|.|.|.|.}.}.~.~.@X@X#X#X1X1X& & $.$.).).OXOX/./.].].Y Y ",
"^.^.{ { ] ] ~ ~ R R ) ) B B K K N N * * #X#XZ Z A A } } >.>.2 2 ",
"^.^.{ { ] ] ~ ~ R R ) ) B B K K N N * * #X#XZ Z A A } } >.>.2 2 ",
"oXoXV V K.K.7 7 c.c.p.p.B.B.` ` b b < <  X X| | L.L.S S ....: : ",
"oXoXV V K.K.7 7 c.c.p.p.B.B.` ` b b < <  X X| | L.L.S S ....: : ",
"Q.Q.F F b.b.e.e.v.v.f.f.h.h.l l X.X.> > ;X;X+.+.S S ! ! 4.4.= = ",
"Q.Q.F F b.b.e.e.v.v.f.f.h.h.l l X.X.> > ;X;X+.+.S S ! ! 4.4.= = ",
"!.!.E E H.H.S.S.8.8.D.D.l.l.w w =.=.* * 7X7X; ; :.:.v v m m ; ; ",
"!.!.E E H.H.S.S.8.8.D.D.l.l.w w =.=.* * 7X7X; ; :.:.v v m m ; ; ",
"_._.W W e e M.M.F.F.u.u.y.y.G.G.Y Y = = U.U.- - > > 1 1 > > T.T.",
"_._.W W e e M.M.F.F.u.u.y.y.G.G.Y Y = = U.U.- - > > 1 1 > > T.T.",
"'.'.a a J.J.n.n.m.m.m.m.i.i.d d U U > > =X=X2X2X+X+X%X%X,X,X* * ",
"'.'.a a J.J.n.n.m.m.m.m.i.i.d d U U > > =X=X2X2X+X+X%X%X,X,X* * ",
"`.`.^ ^ q q Z.Z.u.u.a.a.V.V.d d H H 1 1 &X&X . .[ [ L L Y.Y.% % ",
"`.`.^ ^ q q Z.Z.u.u.a.a.V.V.d d H H 1 1 &X&X . .[ [ L L Y.Y.% % ",
"$X$XC C A.A.V.V.k.k.s.s.C.C.w w J J 2 2 -X-XQ Q h h p p 2.2.= = ",
"$X$XC C A.A.V.V.k.k.s.s.C.C.w w J J 2 2 -X-XQ Q h h p p 2.2.= = ",
"*X*X1.1.s s 0 0 j.j.d.d.g.g.t t 3.3.: : (.(.z z 8 8 g g ....: : ",
"*X*X1.1.s s 0 0 j.j.d.d.g.g.t t 3.3.: : (.(.z z 8 8 g g ....: : ",
"O O $ $ ;.;./ / x.x.q.q.w.w.D D = = 9X9X( ( r.r.z.z.u u %.%.3 3 ",
"O O $ $ ;.;./ / x.x.q.q.w.w.D D = = 9X9X( ( r.r.z.z.u u %.%.3 3 ",
"6X6X0X0X< < 5 5 i i y y _ _ #.#.% % 4X4Xk k 0.0.9.9.6 6 @.@.3 3 ",
"6X6X0X0X< < 5 5 i i y y _ _ #.#.% % 4X4Xk k 0.0.9.9.6 6 @.@.3 3 ",
">X>X<.<.[.[.:X:X< < * * o o # # 3X3X6.6.N.N.j.j.t.t.j j G G ; ; ",
">X>X<.<.[.[.:X:X< < * * o o # # 3X3X6.6.N.N.j.j.t.t.j j G G ; ; ",
"{.{.I I &.&.o.o.8X8XqXqXwXwX. . =X=X7.7.r r f f 9 9 ' ' c c % % ",
"{.{.I I &.&.o.o.8X8XqXqXwXwX. . =X=X7.7.r r f f 9 9 ' ' c c % % ",
"XXXX,.,.O.O.M M x x E.E.P.P.& & <X<XR.R.5.5.T T -.-.n n + +     ",
"XXXX,.,.O.O.M M x x E.E.P.P.& & <X<XR.R.5.5.T T -.-.n n + +     ",
"*.*.4 4 : : $ $ @ @ O O % % I.I.5X5X, , * * % % - - $ $ X X W.W.",
"*.*.4 4 : : $ $ @ @ O O % % I.I.5X5X, , * * % % - - $ $ X X W.W."
};