/* XPM */
static char *result[] = {
/* columns rows colors chars-per-pixel */
"32 32 4 1 ",
"  c #6B6D00",
". c #B53120",
"X c #EA9E22",
"o c #FFFFFFFF",
/* pixels */
"oooooooooo..........oooooooooooo",
"oooooooooo..........oooooooooooo",
"oooooooo..................oooooo",
"oooooooo..................oooooo",
"oooooooo      XXXX  XXoooooooooo",
"oooooooo      XXXX  XXoooooooooo",
"oooooo  XX  XXXXXX  XXXXXXoooooo",
"oooooo  XX  XXXXXX  XXXXXXoooooo",
"oooooo  XX    XXXXXX  XXXXXXoooo",
"oooooo  XX    XXXXXX  XXXXXXoooo",
"oooooo    XXXXXXXX        oooooo",
"oooooo    XXXXXXXX        oooooo",
"ooooooooooXXXXXXXXXXXXXXoooooooo",
"ooooooooooXXXXXXXXXXXXXXoooooooo",
"oooooooo    ..      oooooooooooo",
"oooooooo    ..      oooooooooooo",
"oooooo      ..    ..      oooooo",
"oooooo      ..    ..      oooooo",
"oooo        ........        oooo",
"oooo        ........        oooo",
"ooooXXXX  ..XX....XX..  XXXXoooo",
"ooooXXXX  ..XX....XX..  XXXXoooo",
"ooooXXXXXX............XXXXXXoooo",
"ooooXXXXXX............XXXXXXoooo",
"ooooXXXX................XXXXoooo",
"ooooXXXX................XXXXoooo",
"oooooooo......oooo......oooooooo",
"oooooooo......oooo......oooooooo",
"oooooo      oooooooo      oooooo",
"oooooo      oooooooo      oooooo",
"oooo        oooooooo        oooo",
"oooo        oooooooo        oooo"
};
