/* XPM */
static char *_554c5435cba4537be5f9aed4a3f6541XjyGABSb2gSrmHmt[] = {
/* columns rows colors chars-per-pixel */
"32 32 4 1 ",
"  c #6B6D00",
". c #B53120",
"X c #EA9E22",
"o c #FFFFFFFF",
/* pixels */
"oooooooooooo..........oooooooooo",
"oooooooooooo..........oooooooooo",
"oooooo..................oooooooo",
"oooooo..................oooooooo",
"ooooooooooXX  XXXX      oooooooo",
"ooooooooooXX  XXXX      oooooooo",
"ooooooXXXXXX  XXXXXX  XX  oooooo",
"ooooooXXXXXX  XXXXXX  XX  oooooo",
"ooooXXXXXX  XXXXXX    XX  oooooo",
"ooooXXXXXX  XXXXXX    XX  oooooo",
"oooooo        XXXXXXXX    oooooo",
"oooooo        XXXXXXXX    oooooo",
"ooooooooXXXXXXXXXXXXXXoooooooooo",
"ooooooooXXXXXXXXXXXXXXoooooooooo",
"oooooooooooo      ..    oooooooo",
"oooooooooooo      ..    oooooooo",
"oooooo      ..    ..      oooooo",
"oooooo      ..    ..      oooooo",
"oooo        ........        oooo",
"oooo        ........        oooo",
"ooooXXXX  ..XX....XX..  XXXXoooo",
"ooooXXXX  ..XX....XX..  XXXXoooo",
"ooooXXXXXX............XXXXXXoooo",
"ooooXXXXXX............XXXXXXoooo",
"ooooXXXX................XXXXoooo",
"ooooXXXX................XXXXoooo",
"oooooooo......oooo......oooooooo",
"oooooooo......oooo......oooooooo",
"oooooo      oooooooo      oooooo",
"oooooo      oooooooo      oooooo",
"oooo        oooooooo        oooo",
"oooo        oooooooo        oooo"
};
