/* XPM */
static char *dc6595cbb8504a30bbc9dd3118986eee47njsWWgZ4EOD1yQ[] = {
/* columns rows colors chars-per-pixel */
"32 32 4 1 ",
"  c #6B6D00",
". c #B53120",
"X c #EA9E22",
"o c #FFFFFFFF",
/* pixels */
"oooooooooooo..........oooooooooo",
"oooooooooooo..........oooooooooo",
"oooooo..................oooooooo",
"oooooo..................oooooooo",
"ooooooooooXX  XXXX      oooooooo",
"ooooooooooXX  XXXX      oooooooo",
"ooooooXXXXXX  XXXXXX  XX  oooooo",
"ooooooXXXXXX  XXXXXX  XX  oooooo",
"ooooXXXXXX  XXXXXX    XX  oooooo",
"ooooXXXXXX  XXXXXX    XX  oooooo",
"oooooo        XXXXXXXX    oooooo",
"oooooo        XXXXXXXX    oooooo",
"ooooooooXXXXXXXXXXXXXXoooooooooo",
"ooooooooXXXXXXXXXXXXXXoooooooooo",
"oooooooooooo    ....        oooo",
"oooooooooooo    ....        oooo",
"ooXXXXXX      ......        XXXX",
"ooXXXXXX      ......        XXXX",
"ooXXXX    ......XX..    ooXXXXXX",
"ooXXXX    ......XX..    ooXXXXXX",
"oooo  oooo..............ooooXXXX",
"oooo  oooo..............ooooXXXX",
"oooo    ..................oooooo",
"oooo    ..................oooooo",
"oooo    ....................oooo",
"oooo    ....................oooo",
"oooo    ......oooooo......    oo",
"oooo    ......oooooo......    oo",
"oooooooooooooooooooooooo      oo",
"oooooooooooooooooooooooo      oo",
"oooooooooooooooooooooo      oooo",
"oooooooooooooooooooooo      oooo"
};
