/* XPM */
static char *c8782c2d49de4abfc3db0eba024ea1f0mpeGFhxbasPNvQr3[] = {
/* columns rows colors chars-per-pixel */
"32 32 4 1 ",
"  c #A41F19",
". c #DE8B1B",
"X c #FFFFFFFF",
"o c #FFFEFF",
/* pixels */
"XXXXXXXXXXXXXXXXXXXXXXXXXXXXXXXX",
"XXXXXXXXXXXXXXXXXXXXXXXXXXXXXXXX",
"XXXXXXXXXXXXXX....XXXXXXXXXXXXXX",
"XXXXXXXXXXXXXX....XXXXXXXXXXXXXX",
"XXXXXXXXXXXX........XXXXXXXXXXXX",
"XXXXXXXXXXXX........XXXXXXXXXXXX",
"XXXXXXXXXX............XXXXXXXXXX",
"XXXXXXXXXX............XXXXXXXXXX",
"XXXXXXXXXX....oo  ....XXXXXXXXXX",
"XXXXXXXXXX....oo  ....XXXXXXXXXX",
"XXXXXXXX....oo....  ....XXXXXXXX",
"XXXXXXXX....oo....  ....XXXXXXXX",
"XXXXXXXX....oo....  ....XXXXXXXX",
"XXXXXXXX....oo....  ....XXXXXXXX",
"XXXXXXXX....oo....  ....XXXXXXXX",
"XXXXXXXX....oo....  ....XXXXXXXX",
"XXXXXXXX....oo....  ....XXXXXXXX",
"XXXXXXXX....oo....  ....XXXXXXXX",
"XXXXXXXX....oo....  ....XXXXXXXX",
"XXXXXXXX....oo....  ....XXXXXXXX",
"XXXXXXXX....oo....  ....XXXXXXXX",
"XXXXXXXX....oo....  ....XXXXXXXX",
"XXXXXXXXXX....oo  ....XXXXXXXXXX",
"XXXXXXXXXX....oo  ....XXXXXXXXXX",
"XXXXXXXXXX............XXXXXXXXXX",
"XXXXXXXXXX............XXXXXXXXXX",
"XXXXXXXXXXXX........XXXXXXXXXXXX",
"XXXXXXXXXXXX........XXXXXXXXXXXX",
"XXXXXXXXXXXXXX....XXXXXXXXXXXXXX",
"XXXXXXXXXXXXXX....XXXXXXXXXXXXXX",
"XXXXXXXXXXXXXXXXXXXXXXXXXXXXXXXX",
"XXXXXXXXXXXXXXXXXXXXXXXXXXXXXXXX"
};
