/* XPM */
static char *_a40e490d44c401bd4f1d9afc7667355wtknVjpBF8agf2TM[] = {
/* columns rows colors chars-per-pixel */
"32 32 4 1 ",
"  c #6B6D00",
". c #B53120",
"X c #EA9E22",
"o c #FFFFFFFF",
/* pixels */
"oooooooooooo..........oooooooooo",
"oooooooooooo..........oooooooooo",
"oooooooo................  oooooo",
"oooooooo................  oooooo",
"ooooooooooXX  XX            oooo",
"ooooooooooXX  XX            oooo",
"ooooooXXXXXXXXXXXX  XXXX  XXXXoo",
"ooooooXXXXXXXXXXXX  XXXX  XXXXoo",
"ooooXXXX    XXXX    XXXX  XXXXoo",
"ooooXXXX    XXXX    XXXX  XXXXoo",
"oooooo    XXXXXXXXXXXX  XXXXoooo",
"oooooo    XXXXXXXXXXXX  XXXXoooo",
"ooooooooXXXX..      ......oooooo",
"ooooooooXXXX..      ......oooooo",
"oooooo      ....  XXXXXX....oooo",
"oooooo      ....  XXXXXX....oooo",
"oooooo            XXXXXX  ..oooo",
"oooooo            XXXXXX  ..oooo",
"oooooo            XXXX......oooo",
"oooooo            XXXX......oooo",
"oooooooo        ..........oooooo",
"oooooooo        ..........oooooo",
"oooooooooo........      ..oooooo",
"oooooooooo........      ..oooooo",
"oooooooooo......        oooooooo",
"oooooooooo......        oooooooo",
"oooooooooooo..      ....  oo  oo",
"oooooooooooo..      ....  oo  oo",
"oooooooooooooooooo..          oo",
"oooooooooooooooooo..          oo",
"oooooooooooooooooooo        oooo",
"oooooooooooooooooooo        oooo"
};
