/* XPM */
static char *_b83d9a32f784e409745bc0745887f21r8nI0GRmzsBNELka[] = {
/* columns rows colors chars-per-pixel */
"8 16 3 1 ",
"  c #DE8B1B",
". c #7F77FF",
"X c #FFFEFF",
/* pixels */
"........",
".... ...",
".... ...",
".... ...",
".... ...",
".... ...",
".... ...",
"....X...",
"....X...",
".... ...",
".... ...",
".... ...",
".... ...",
".... ...",
".... ...",
"........"
};
