/* XPM */
static char *dcb88b05cb6f4268fcc83317d515fef8cIaYH0wJAbNj2ozv[] = {
/* columns rows colors chars-per-pixel */
"32 32 3 1 ",
"  c black",
". c #9C4A00",
"X c #FFFFFFFF",
/* pixels */
"XX                            XX",
"XX                            XX",
"  ............................  ",
"  ............................  ",
"  ..  ....................  ..  ",
"  ..  ....................  ..  ",
"  ............................  ",
"  ............................  ",
"  ............................  ",
"  ............................  ",
"  ............................  ",
"  ............................  ",
"  ............................  ",
"  ............................  ",
"  ............................  ",
"  ............................  ",
"  ............................  ",
"  ............................  ",
"  ............................  ",
"  ............................  ",
"  ............................  ",
"  ............................  ",
"  ............................  ",
"  ............................  ",
"  ............................  ",
"  ............................  ",
"  ..  ....................  ..  ",
"  ..  ....................  ..  ",
"  ............................  ",
"  ............................  ",
"XX                            XX",
"XX                            XX",
};
