/* XPM */
static char *ba08e421e9d2473d8e49e7ce206ddc4buphwtC3OraZiraaq[] = {
/* columns rows colors chars-per-pixel */
"32 32 4 1 ",
"  c #6B6D00",
". c #B53120",
"X c #EA9E22",
"o c #FFFFFFFF",
/* pixels */
"oooooooooooooooooooooooooooooooo",
"oooooooooooooooooooooooooooooooo",
"oooooooooo..........oooooooooooo",
"oooooooooo..........oooooooooooo",
"oooo..................oooooooooo",
"oooo..................oooooooooo",
"ooooooooXX  XXXX      oooooooooo",
"ooooooooXX  XXXX      oooooooooo",
"ooooXXXXXX  XXXXXX  XX  oooooooo",
"ooooXXXXXX  XXXXXX  XX  oooooooo",
"ooXXXXXX  XXXXXX    XX  oooooooo",
"ooXXXXXX  XXXXXX    XX  oooooooo",
"oooo        XXXXXXXX    oooooooo",
"oooo        XXXXXXXX    oooooooo",
"ooooooXXXXXXXXXXXXXXoooooooooooo",
"ooooooXXXXXXXXXXXXXXoooooooooooo",
"ooooooXXoo  ..        oooooooooo",
"ooooooXXoo  ..        oooooooooo",
"ooooXXXXXX            XXoooooooo",
"ooooXXXXXX            XXoooooooo",
"ooooooXXXX          ..XXXXoooooo",
"ooooooXXXX          ..XXXXoooooo",
"oooooooo..............    oooooo",
"oooooooo..............    oooooo",
"oooooooo................  oooooo",
"oooooooo................  oooooo",
"oooooooooo......oo......    oooo",
"oooooooooo......oo......    oooo",
"oooooooooooo      oooooooo  oooo",
"oooooooooooo      oooooooo  oooo",
"oooooooooo        oooooooooooooo",
"oooooooooo        oooooooooooooo"
};
