/* XPM */
static char *result[] = {
/* columns rows colors chars-per-pixel */
"32 32 3 1 ",
"  c black",
". c #C84C0C",
"X c #FCBCB0",
/* pixels */
"XXXXXXXXXXXXXXXXXXXXXXXXXXXXXXXX",
"XXXXXXXXXXXXXXXXXXXXXXXXXXXXXXXX",
"..............  ..............  ",
"..............  ..............  ",
"..............  ..............  ",
"..............  ..............  ",
"                                ",
"                                ",
"......  ..............  ........",
"......  ..............  ........",
"......  ..............  ........",
"......  ..............  ........",
"......  ..............  ........",
"......  ..............  ........",
"                                ",
"                                ",
"..............  ..............  ",
"..............  ..............  ",
"..............  ..............  ",
"..............  ..............  ",
"..............  ..............  ",
"..............  ..............  ",
"                                ",
"                                ",
"......  ..............  ........",
"......  ..............  ........",
"......  ..............  ........",
"......  ..............  ........",
"......  ..............  ........",
"......  ..............  ........",
"                                ",
"                                "
};
