/* XPM */
static char *result[] = {
/* columns rows colors chars-per-pixel */
"32 32 5 1 ",
"e c black",
"  c #FFFFFFFF",
". c #DE8B1B",
"X c #A41F19",
"o c #FFFEFF",
/* pixels */
"      ..  ....  ..              ",
"      ..  ....  ..              ",
"      ............              ",
"      ............              ",
"    XXXXXXXXXXXXXXXX            ",
"    XXXXXXXXXXXXXXXX            ",
"  XXXXXX......XXXXXXXX          ",
"  XXXXXX......XXXXXXXX          ",
"    XX..ee......XX..XXXX        ",
"    XX..ee......XX..XXXX        ",
"    ....ee......XX..XXXX        ",
"    ....ee......XX..XXXX        ",
"      ..............XXXX        ",
"      ..............XXXX        ",
"    ..XXXXXX....XXooXXXXXX      ",
"    ..XXXXXX....XXooXXXXXX      ",
"      ........ooooooooXXXX      ",
"      ........ooooooooXXXX      ",
"      XXoooooo....XXooXXXX      ",
"      XXoooooo....XXooXXXX      ",
"  ..............ooooXXXX        ",
"  ..............ooooXXXX        ",
"      oooooooooooooooooooo      ",
"      oooooooooooooooooooo      ",
"    oooooooooooooooooooooooo    ",
"    oooooooooooooooooooooooo    ",
"  ooooXXXXXXXXXXXXXXXXXXXXoooo  ",
"  ooooXXXXXXXXXXXXXXXXXXXXoooo  ",
"  XXXXXXXXXXooooooooXXXXXXXXXX  ",
"  XXXXXXXXXXooooooooXXXXXXXXXX  ",
"oooooooooooooooooooooooooooooooo",
"oooooooooooooooooooooooooooooooo"
};
