/* XPM */
static char *_07339ac629642e9e58d6446960ee3edL2WGSx1FIU05931x[] = {
/* columns rows colors chars-per-pixel */
"32 32 4 1 ",
"  c #6B6D00",
". c #B53120",
"X c #EA9E22",
"o c #FFFFFFFF",
/* pixels */
"oooooooooooo........oooooooooooo",
"oooooooooooo........oooooooooooo",
"ooooooXXoo............ooXXoooooo",
"ooooooXXoo............ooXXoooooo",
"ooXXXXXX  XX  XXXX  XX  XXXXXXoo",
"ooXXXXXX  XX  XXXX  XX  XXXXXXoo",
"ooXXXX    XX  XXXX  XX    XXXXoo",
"ooXXXX    XX  XXXX  XX    XXXXoo",
"ooXXXX      XXXXXXXX      XXXXoo",
"ooXXXX      XXXXXXXX      XXXXoo",
"oooooo        XXXX        oooooo",
"oooooo        XXXX        oooooo",
"oooooooo  XX        XX  oooooooo",
"oooooooo  XX        XX  oooooooo",
"oooooooo  XXXXXXXXXXXX  oooooooo",
"oooooooo  XXXXXXXXXXXX  oooooooo",
"oooooo......XXXXXXXX......oooooo",
"oooooo......XXXXXXXX......oooooo",
"oooo    ....        ....    oooo",
"oooo    ....        ....    oooo",
"oooo      ....    ....      oooo",
"oooo      ....    ....      oooo",
"oooo      ..XX....XX..      oooo",
"oooo      ..XX....XX..      oooo",
"oooo      ............      oooo",
"oooo      ............      oooo",
"oooooo    ............    oooooo",
"oooooo    ............    oooooo",
"oooooooooooooooooooooooooooooooo",
"oooooooooooooooooooooooooooooooo",
"oooooooooooooooooooooooooooooooo",
"oooooooooooooooooooooooooooooooo"
};
