/* XPM */
static char *_ebd6f8ecb9a474097b7ba39ebaaa8c8pcA5vQQdF0JyxoqH[] = {
/* columns rows colors chars-per-pixel */
"32 32 4 1 ",
"  c black",
". c #9C4A00",
"X c #FFFFFFFF",
"o c #FFCEC5",
/* pixels */
"XXXXXXXXXXXXXXXXXXXXXXXXXXXXXXXX",
"XXXXXXXXXXXXXXXXXXXXXXXXXXXXXXXX",
"XXXXXXXXXXXXXXXXXXXXXXXXXXXXXXXX",
"XXXXXXXXXXXXXXXXXXXXXXXXXXXXXXXX",
"XXXXXXXXXXXXXXXXXXXXXXXXXXXXXXXX",
"XXXXXXXXXXXXXXXXXXXXXXXXXXXXXXXX",
"XXXXXXXXXXXXXXXXXXXXXXXXXXXXXXXX",
"XXXXXXXXXXXXXXXXXXXXXXXXXXXXXXXX",
"XXXXXXXXXXXXXXXXXXXXXXXXXXXXXXXX",
"XXXXXXXXXXXXXXXXXXXXXXXXXXXXXXXX",
"XXXXXXXXXXXXXXXXXXXXXXXXXXXXXXXX",
"XXXXXXXXXXXXXXXXXXXXXXXXXXXXXXXX",
"XXXXXXXXXXXXXXXXXXXXXXXXXXXXXXXX",
"XXXXXXXXXXXXXXXXXXXXXXXXXXXXXXXX",
"XXXXXXXXXXXXXXXXXXXXXXXXXXXXXXXX",
"XXXXXXXXXXXXXXXXXXXXXXXXXXXXXXXX",
"XXXXXXXXXXXX........XXXXXXXXXXXX",
"XXXXXXXXXXXX........XXXXXXXXXXXX",
"XXXXXX....................XXXXXX",
"XXXXXX....................XXXXXX",
"XX....      ........      ....XX",
"XX....      ........      ....XX",
"....oooooooo        oooooooo....",
"....oooooooo        oooooooo....",
"................................",
"................................",
"XXXXXXooooooooooooooooooooXXXXXX",
"XXXXXXooooooooooooooooooooXXXXXX",
"XXXXXXXXooooooooooooooooXXXXXXXX",
"XXXXXXXXooooooooooooooooXXXXXXXX",
"XX          XXXXXXXX          XX",
"XX          XXXXXXXX          XX"
};
