/* XPM */
static char *_f2f13f3658046fbec6c1a6c74efd6428vycMYaVqyeT1wVR[] = {
/* columns rows colors chars-per-pixel */
"32 32 4 1 ",
"  c black",
". c #9C4A00",
"X c #FFFFFFFF",
"o c #FFCEC5",
/* pixels */
"XXXXXXXXXXXX........XXXXXXXXXXXX",
"XXXXXXXXXXXX........XXXXXXXXXXXX",
"XXXXXXXXXX............XXXXXXXXXX",
"XXXXXXXXXX............XXXXXXXXXX",
"XXXXXXXX................XXXXXXXX",
"XXXXXXXX................XXXXXXXX",
"XXXXXX....................XXXXXX",
"XXXXXX....................XXXXXX",
"XXXX..    ............    ..XXXX",
"XXXX..    ............    ..XXXX",
"XX......oo  ........  oo......XX",
"XX......oo  ........  oo......XX",
"XX......oo            oo......XX",
"XX......oo            oo......XX",
"........oo  oo....oo  oo........",
"........oo  oo....oo  oo........",
"........oooooo....oooooo........",
"........oooooo....oooooo........",
"................................",
"................................",
"XX........oooooooooooo........XX",
"XX........oooooooooooo........XX",
"XXXXXXXXooooooooooooooooXXXXXXXX",
"XXXXXXXXooooooooooooooooXXXXXXXX",
"XXXX    ooooooooooooooooXXXXXXXX",
"XXXX    ooooooooooooooooXXXXXXXX",
"XX          oooooooooo    XXXXXX",
"XX          oooooooooo    XXXXXX",
"XX            oooooo      XXXXXX",
"XX            oooooo      XXXXXX",
"XXXX          XXXX      XXXXXXXX",
"XXXX          XXXX      XXXXXXXX"
};
